<svg xmlns="http://www.w3.org/2000/svg" viewBox="0 0 32 32" width="32" height="32"><rect width="32" height="32" rx="7" fill="#0b0b0c"/><g transform="translate(8.222 6) scale(0.222)"><circle cx="45" cy="5" r="3.6" fill="#ff7a1a"/><circle cx="35" cy="15" r="3.6" fill="#ff7a1a"/><circle cx="45" cy="15" r="3.6" fill="#ff7a1a"/><circle cx="25" cy="25" r="3.6" fill="#ff7a1a"/><circle cx="35" cy="25" r="3.6" fill="#ff7a1a"/><circle cx="45" cy="25" r="3.6" fill="#ffc27a"/><circle cx="15" cy="35" r="3.6" fill="#ff7a1a"/><circle cx="25" cy="35" r="3.6" fill="#ff7a1a"/><circle cx="35" cy="35" r="3.6" fill="#ffc27a"/><circle cx="45" cy="35" r="3.6" fill="#ffc27a"/><circle cx="65" cy="35" r="3.6" fill="#ff7a1a"/><circle cx="15" cy="45" r="3.6" fill="#ff7a1a"/><circle cx="25" cy="45" r="3.6" fill="#ffc27a"/><circle cx="35" cy="45" r="3.6" fill="#ffc27a"/><circle cx="45" cy="45" r="3.6" fill="#ffc27a"/><circle cx="55" cy="45" r="3.6" fill="#ff7a1a"/><circle cx="65" cy="45" r="3.6" fill="#ff7a1a"/><circle cx="5" cy="55" r="3.6" fill="#ff7a1a"/><circle cx="15" cy="55" r="3.6" fill="#ff7a1a"/><circle cx="25" cy="55" r="3.6" fill="#ffc27a"/><circle cx="35" cy="55" r="3.6" fill="#ffc27a"/><circle cx="45" cy="55" r="3.6" fill="#ffc27a"/><circle cx="55" cy="55" r="3.6" fill="#ff7a1a"/><circle cx="65" cy="55" r="3.6" fill="#ff7a1a"/><circle cx="5" cy="65" r="3.6" fill="#ff7a1a"/><circle cx="15" cy="65" r="3.6" fill="#ff7a1a"/><circle cx="25" cy="65" r="3.6" fill="#ffc27a"/><circle cx="35" cy="65" r="3.6" fill="#ffc27a"/><circle cx="45" cy="65" r="3.6" fill="#ffc27a"/><circle cx="55" cy="65" r="3.6" fill="#ff7a1a"/><circle cx="65" cy="65" r="3.6" fill="#ff7a1a"/><circle cx="15" cy="75" r="3.6" fill="#ff7a1a"/><circle cx="25" cy="75" r="3.6" fill="#ff7a1a"/><circle cx="35" cy="75" r="3.6" fill="#ffc27a"/><circle cx="45" cy="75" r="3.6" fill="#ff7a1a"/><circle cx="55" cy="75" r="3.6" fill="#ff7a1a"/><circle cx="25" cy="85" r="3.6" fill="#ff7a1a"/><circle cx="35" cy="85" r="3.6" fill="#ff7a1a"/><circle cx="45" cy="85" r="3.6" fill="#ff7a1a"/></g></svg>
